<?xml version="1.0" standalone="no"?><!DOCTYPE svg PUBLIC "-//W3C//DTD SVG 1.1//EN" "http://www.w3.org/Graphics/SVG/1.1/DTD/svg11.dtd"><svg t="1648045448144" class="icon" viewBox="0 0 1024 1024" version="1.1" xmlns="http://www.w3.org/2000/svg" p-id="773" xmlns:xlink="http://www.w3.org/1999/xlink" width="200" height="200"><defs><style type="text/css"></style></defs><path d="M921.6 1024H102.4c-58.026667 0-102.4-44.373333-102.4-102.4V102.4c0-58.026667 44.373333-102.4 102.4-102.4h819.2c58.026667 0 102.4 44.373333 102.4 102.4v819.2c0 58.026667-44.373333 102.4-102.4 102.4z" fill="#5883FF" p-id="774"></path><path d="M157.013333 474.453333l-34.133333 37.546667 34.133333 37.546667 109.226667 105.813333 37.546667-34.133333L194.56 512l109.226667-109.226667-37.546667-34.133333zM866.986667 549.546667l34.133333-37.546667-34.133333-37.546667-109.226667-105.813333-37.546667 34.133333 109.226667 109.226667-109.226667 109.226667 37.546667 34.133333zM604.672 237.909333l47.8208 18.295467-202.410667 529.2032-47.786666-18.295467z" fill="#FFFFFF" p-id="775"></path></svg>